<svg viewBox="0 0 144 172" fill="none" xmlns="http://www.w3.org/2000/svg"><path d="M0 30C0 13.4315 13.4315 0 30 0H114C130.569 0 144 13.4315 144 30V144H0V30Z" fill="#F9F9FB"></path><path d="M57 144H87V166C87 169.314 84.3137 172 81 172H63C59.6863 172 57 169.314 57 166V144Z" fill="#F9F9FB"></path><path d="M116 144H144V166C144 169.314 141.314 172 138 172H122C118.686 172 116 169.314 116 166V144Z" fill="#F9F9FB"></path><path d="M0 144H29V166C29 169.314 26.3137 172 23 172H6C2.68629 172 0 169.314 0 166V144Z" fill="#F9F9FB"></path><path d="M57 165L29 165L29 145C29 141.686 31.6863 139 35 139L51 139C54.3137 139 57 141.686 57 145L57 165Z" fill="#6C4AB6"></path><path d="M116 167L87 167L87 145C87 141.686 89.6863 139 93 139L110 139C113.314 139 116 141.686 116 145L116 167Z" fill="#6C4AB6"></path><path d="M86 138H116V160C116 163.314 113.314 166 110 166H92C88.6863 166 86 163.314 86 160V138Z" fill="#F9F9FB" fill-opacity="0.56"></path><path d="M29 138H58V160C58 163.314 55.3137 166 52 166H35C31.6863 166 29 163.314 29 160V138Z" fill="#F9F9FB" fill-opacity="0.56"></path><rect x="34" y="43" width="22" height="30" rx="5" fill="#FFBE55"></rect><rect x="89" y="43" width="22" height="30" rx="5" fill="#FFBE55"></rect></svg>
